<svg width="500" height="500" viewBox="0 0 500 500" fill="none" xmlns="http://www.w3.org/2000/svg">
<path d="M432.19 216.51C429.645 201.77 424.789 187.525 417.8 174.3C405.58 151.3 383.44 116.38 356.12 102.79C313.92 81.79 274 80.79 235.18 113.79C196.36 146.79 166.34 240.79 151.97 256.79C137.6 272.79 98.35 275.79 81.21 300.79C64.07 325.79 63.73 384.79 63.73 384.79H438C438 384.79 449.33 314 432.19 216.51Z" fill="#00FF4C"/>
<path opacity="0.8" d="M432.19 216.51C429.645 201.77 424.789 187.525 417.8 174.3C405.58 151.3 383.44 116.38 356.12 102.79C313.92 81.79 274 80.79 235.18 113.79C196.36 146.79 166.34 240.79 151.97 256.79C137.6 272.79 98.35 275.79 81.21 300.79C64.07 325.79 63.73 384.79 63.73 384.79H438C438 384.79 449.33 314 432.19 216.51Z" fill="white"/>
<path d="M387.22 180.6C382.76 178.16 380.74 180.19 379.12 178.16C377.5 176.13 383.57 170.87 371.41 165.6C371.41 165.6 370.6 154.25 353.98 153.84C337.36 153.43 341.82 165.19 337.36 168C332.9 170.81 331.68 166.38 327.22 169.22C322.76 172.06 324.79 177.73 321.14 178.54C317.49 179.35 312.63 174.89 308.14 177.73C303.65 180.57 303.68 183 301.65 183C299.62 183 295.57 181.38 293.14 183C290.71 184.62 287.87 186.65 287.87 186.65H390.47C390.47 186.65 391.68 183 387.22 180.6Z" fill="#00FF4C"/>
<path opacity="0.5" d="M387.22 180.6C382.76 178.16 380.74 180.19 379.12 178.16C377.5 176.13 383.57 170.87 371.41 165.6C371.41 165.6 370.6 154.25 353.98 153.84C337.36 153.43 341.82 165.19 337.36 168C332.9 170.81 331.68 166.38 327.22 169.22C322.76 172.06 324.79 177.73 321.14 178.54C317.49 179.35 312.63 174.89 308.14 177.73C303.65 180.57 303.68 183 301.65 183C299.62 183 295.57 181.38 293.14 183C290.71 184.62 287.87 186.65 287.87 186.65H390.47C390.47 186.65 391.68 183 387.22 180.6Z" fill="#00FF4C"/>
<path d="M298.8 125.69C296.16 124.25 294.96 125.45 294 124.25C293.04 123.05 296.64 119.92 289.43 116.8C289.43 116.8 288.95 110.07 279.1 109.8C269.25 109.53 271.89 116.53 269.25 118.21C266.61 119.89 265.89 117.21 263.25 118.93C260.61 120.65 261.81 123.98 259.65 124.46C257.49 124.94 254.65 122.29 251.96 123.98C249.27 125.67 249.32 127.1 248.11 127.1C246.9 127.1 244.51 126.1 243.11 127.1C241.71 128.1 239.99 129.26 239.99 129.26H300.78C300.78 129.26 301.45 127.13 298.8 125.69Z" fill="#00FF4C"/>
<path opacity="0.5" d="M298.8 125.69C296.16 124.25 294.96 125.45 294 124.25C293.04 123.05 296.64 119.92 289.43 116.8C289.43 116.8 288.95 110.07 279.1 109.8C269.25 109.53 271.89 116.53 269.25 118.21C266.61 119.89 265.89 117.21 263.25 118.93C260.61 120.65 261.81 123.98 259.65 124.46C257.49 124.94 254.65 122.29 251.96 123.98C249.27 125.67 249.32 127.1 248.11 127.1C246.9 127.1 244.51 126.1 243.11 127.1C241.71 128.1 239.99 129.26 239.99 129.26H300.78C300.78 129.26 301.45 127.13 298.8 125.69Z" fill="#00FF4C"/>
<path d="M268.79 222.19C266.15 220.75 264.95 221.95 263.99 220.75C263.03 219.55 266.63 216.42 259.42 213.3C259.42 213.3 258.94 206.57 249.09 206.3C239.24 206.03 241.88 213.03 239.24 214.71C236.6 216.39 235.87 213.71 233.24 215.43C230.61 217.15 231.8 220.43 229.64 220.96C227.48 221.49 224.64 218.8 221.95 220.48C219.26 222.16 219.3 223.6 218.1 223.6C216.9 223.6 214.5 222.6 213.1 223.6C211.7 224.6 209.97 225.77 209.97 225.77H270.76C270.76 225.77 271.43 223.63 268.79 222.19Z" fill="#00FF4C"/>
<path opacity="0.5" d="M268.79 222.19C266.15 220.75 264.95 221.95 263.99 220.75C263.03 219.55 266.63 216.42 259.42 213.3C259.42 213.3 258.94 206.57 249.09 206.3C239.24 206.03 241.88 213.03 239.24 214.71C236.6 216.39 235.87 213.71 233.24 215.43C230.61 217.15 231.8 220.43 229.64 220.96C227.48 221.49 224.64 218.8 221.95 220.48C219.26 222.16 219.3 223.6 218.1 223.6C216.9 223.6 214.5 222.6 213.1 223.6C211.7 224.6 209.97 225.77 209.97 225.77H270.76C270.76 225.77 271.43 223.63 268.79 222.19Z" fill="#00FF4C"/>
<g opacity="0.6">
<path d="M387.22 180.6C382.76 178.16 380.74 180.19 379.12 178.16C377.5 176.13 383.57 170.87 371.41 165.6C371.41 165.6 370.6 154.25 353.98 153.84C337.36 153.43 341.82 165.19 337.36 168C332.9 170.81 331.68 166.38 327.22 169.22C322.76 172.06 324.79 177.73 321.14 178.54C317.49 179.35 312.63 174.89 308.14 177.73C303.65 180.57 303.68 183 301.65 183C299.62 183 295.57 181.38 293.14 183C290.71 184.62 287.87 186.65 287.87 186.65H390.47C390.47 186.65 391.68 183 387.22 180.6Z" fill="white"/>
<path opacity="0.5" d="M387.22 180.6C382.76 178.16 380.74 180.19 379.12 178.16C377.5 176.13 383.57 170.87 371.41 165.6C371.41 165.6 370.6 154.25 353.98 153.84C337.36 153.43 341.82 165.19 337.36 168C332.9 170.81 331.68 166.38 327.22 169.22C322.76 172.06 324.79 177.73 321.14 178.54C317.49 179.35 312.63 174.89 308.14 177.73C303.65 180.57 303.68 183 301.65 183C299.62 183 295.57 181.38 293.14 183C290.71 184.62 287.87 186.65 287.87 186.65H390.47C390.47 186.65 391.68 183 387.22 180.6Z" fill="white"/>
</g>
<g opacity="0.6">
<path d="M298.8 125.69C296.16 124.25 294.96 125.45 294 124.25C293.04 123.05 296.64 119.92 289.43 116.8C289.43 116.8 288.95 110.07 279.1 109.8C269.25 109.53 271.89 116.53 269.25 118.21C266.61 119.89 265.89 117.21 263.25 118.93C260.61 120.65 261.81 123.98 259.65 124.46C257.49 124.94 254.65 122.29 251.96 123.98C249.27 125.67 249.32 127.1 248.11 127.1C246.9 127.1 244.51 126.1 243.11 127.1C241.71 128.1 239.99 129.26 239.99 129.26H300.78C300.78 129.26 301.45 127.13 298.8 125.69Z" fill="white"/>
<path opacity="0.5" d="M298.8 125.69C296.16 124.25 294.96 125.45 294 124.25C293.04 123.05 296.64 119.92 289.43 116.8C289.43 116.8 288.95 110.07 279.1 109.8C269.25 109.53 271.89 116.53 269.25 118.21C266.61 119.89 265.89 117.21 263.25 118.93C260.61 120.65 261.81 123.98 259.65 124.46C257.49 124.94 254.65 122.29 251.96 123.98C249.27 125.67 249.32 127.1 248.11 127.1C246.9 127.1 244.51 126.1 243.11 127.1C241.71 128.1 239.99 129.26 239.99 129.26H300.78C300.78 129.26 301.45 127.13 298.8 125.69Z" fill="white"/>
</g>
<g opacity="0.6">
<path d="M268.79 222.19C266.15 220.75 264.95 221.95 263.99 220.75C263.03 219.55 266.63 216.42 259.42 213.3C259.42 213.3 258.94 206.57 249.09 206.3C239.24 206.03 241.88 213.03 239.24 214.71C236.6 216.39 235.87 213.71 233.24 215.43C230.61 217.15 231.8 220.43 229.64 220.96C227.48 221.49 224.64 218.8 221.95 220.48C219.26 222.16 219.3 223.6 218.1 223.6C216.9 223.6 214.5 222.6 213.1 223.6C211.7 224.6 209.97 225.77 209.97 225.77H270.76C270.76 225.77 271.43 223.63 268.79 222.19Z" fill="white"/>
<path opacity="0.5" d="M268.79 222.19C266.15 220.75 264.95 221.95 263.99 220.75C263.03 219.55 266.63 216.42 259.42 213.3C259.42 213.3 258.94 206.57 249.09 206.3C239.24 206.03 241.88 213.03 239.24 214.71C236.6 216.39 235.87 213.71 233.24 215.43C230.61 217.15 231.8 220.43 229.64 220.96C227.48 221.49 224.64 218.8 221.95 220.48C219.26 222.16 219.3 223.6 218.1 223.6C216.9 223.6 214.5 222.6 213.1 223.6C211.7 224.6 209.97 225.77 209.97 225.77H270.76C270.76 225.77 271.43 223.63 268.79 222.19Z" fill="white"/>
</g>
<path d="M357.2 384.05H408.73C407.73 377.75 403.73 378.86 403.16 369.05C402.89 364.13 407.44 358.05 407.04 351.58C406.72 346.26 401.47 340.8 401.04 334.71C400.68 329.22 405.15 323.12 404.72 317.2C404.31 311.6 398.99 306.2 398.52 300.41C398.05 294.62 402.45 288.57 401.93 282.83C401.41 277.09 396 271.83 395.42 266.16C394.83 260.34 399.08 254.08 398.42 248.52C397.73 242.61 392.15 237.52 391.42 232.06C390.57 226 394.52 219.52 393.6 214.29C392.47 207.88 386.5 203.24 385.24 198.51C382.9 189.7 383.24 181.2 380.43 180.65C377.48 180.06 376.81 188.38 374.58 197.65C373.45 202.33 367.58 207.07 366.66 213.48C365.88 218.68 370.01 224.99 369.33 231.03C368.73 236.44 363.33 241.63 362.76 247.51C362.27 253.04 366.68 259.13 366.24 264.91C365.82 270.53 360.55 275.91 360.18 281.59C359.81 287.27 364.37 293.27 364.06 298.91C363.75 304.55 358.56 310.13 358.3 315.69C358.02 321.56 362.65 327.49 362.43 332.94C362.18 338.94 357.07 344.52 356.88 349.8C356.65 356.21 361.36 362.12 361.22 367C360.9 377.59 356.05 375.4 355.88 383.92L357.2 384.05Z" fill="#00FF4C"/>
<path d="M379.32 197.63V381.67" stroke="#263238" stroke-miterlimit="10"/>
<path d="M387.37 216.92L378.98 224.17L372.11 215.01" stroke="#263238" stroke-miterlimit="10"/>
<path d="M387.37 248.96L378.98 256.2L372.11 247.05" stroke="#263238" stroke-miterlimit="10"/>
<path d="M387.37 279.08L378.98 286.33L372.11 277.18" stroke="#263238" stroke-miterlimit="10"/>
<path d="M387.37 314.93L378.98 322.18L372.11 313.03" stroke="#263238" stroke-miterlimit="10"/>
<path d="M387.37 351.16L378.98 358.41L372.11 349.26" stroke="#263238" stroke-miterlimit="10"/>
<path d="M303 384.05H347.69C346.83 378.59 343.32 379.55 342.85 371.05C342.62 366.78 346.57 361.5 346.23 355.9C345.94 351.29 341.39 346.55 341.04 341.27C340.72 336.51 344.61 331.22 344.23 326.08C343.87 321.23 339.23 316.57 338.85 311.53C338.47 306.49 342.26 301.26 341.85 296.28C341.44 291.3 336.7 286.73 336.21 281.83C335.69 276.78 339.37 271.35 338.81 266.53C338.21 261.4 333.38 256.98 332.72 252.26C331.99 247 335.42 241.38 334.62 236.85C333.62 231.29 328.46 227.26 327.37 223.16C325.37 215.52 325.6 208.16 323.2 207.68C320.64 207.16 320.06 214.38 318.12 222.46C317.12 226.46 312.12 230.62 311.26 236.18C310.58 240.69 314.16 246.18 313.57 251.4C313.05 256.09 308.34 260.59 307.88 265.69C307.45 270.48 311.27 275.77 310.88 280.78C310.49 285.79 305.95 290.3 305.63 295.24C305.31 300.18 309.26 305.37 308.99 310.24C308.72 315.11 304.22 319.97 303.99 324.79C303.75 329.89 307.77 335.03 307.57 339.79C307.36 345.03 302.93 349.79 302.77 354.41C302.57 359.97 306.65 365.1 306.53 369.33C306.25 378.51 302.05 376.61 301.9 384L303 384.05Z" fill="#00FF4C"/>
<path d="M322.16 222.39V381.99" stroke="#263238" stroke-miterlimit="10"/>
<path d="M329.14 239.12L321.87 245.41L315.91 237.47" stroke="#263238" stroke-miterlimit="10"/>
<path d="M329.14 266.9L321.87 273.19L315.91 265.25" stroke="#263238" stroke-miterlimit="10"/>
<path d="M329.14 293.03L321.87 299.31L315.91 291.38" stroke="#263238" stroke-miterlimit="10"/>
<path d="M329.14 324.12L321.87 330.4L315.91 322.46" stroke="#263238" stroke-miterlimit="10"/>
<path d="M329.14 355.53L321.87 361.82L315.91 353.88" stroke="#263238" stroke-miterlimit="10"/>
<path d="M145.68 384.05H207.84C206.65 376.45 201.76 377.79 201.11 366.05C200.79 360.11 206.28 352.77 205.8 344.98C205.41 338.56 199.08 331.98 198.59 324.63C198.15 318 203.59 310.63 203.03 303.5C202.53 296.75 196.11 290.27 195.55 283.25C194.99 276.41 200.28 268.98 199.66 262.05C199.04 255.12 192.5 248.77 191.81 241.95C191.1 234.95 196.22 227.38 195.44 220.66C194.6 213.54 187.88 207.38 186.97 200.81C185.97 193.5 190.72 185.69 189.6 179.38C188.24 171.65 181.04 166.05 179.52 160.38C176.7 149.75 177.05 139.5 173.72 138.83C170.16 138.12 169.35 148.17 166.66 159.39C165.3 165.03 158.26 170.75 157.11 178.48C156.17 184.75 161.11 192.37 160.33 199.65C159.6 206.17 153.05 212.44 152.41 219.53C151.81 226.19 157.13 233.53 156.61 240.53C156.1 247.3 149.74 253.76 149.3 260.64C148.86 267.52 154.3 274.74 153.97 281.53C153.58 288.53 147.34 295.07 147.02 301.77C146.68 308.86 152.27 316.01 152.02 322.58C151.72 329.87 145.56 336.58 145.33 342.91C145.06 350.64 150.74 357.78 150.56 363.66C150.18 376.44 144.33 373.79 144.12 384.07L145.68 384.05Z" fill="#00FF4C"/>
<path d="M172.36 159.19V381.18" stroke="#263238" stroke-miterlimit="10"/>
<path d="M182.07 182.47L171.95 191.21L163.67 180.17" stroke="#263238" stroke-miterlimit="10"/>
<path d="M182.07 221.1L171.95 229.84L163.67 218.81" stroke="#263238" stroke-miterlimit="10"/>
<path d="M182.07 257.44L171.95 266.18L163.67 255.14" stroke="#263238" stroke-miterlimit="10"/>
<path d="M182.07 300.68L171.95 309.42L163.67 298.38" stroke="#263238" stroke-miterlimit="10"/>
<path d="M182.07 344.38L171.95 353.12L163.67 342.08" stroke="#263238" stroke-miterlimit="10"/>
<path d="M132 315.36V369.53C132 372.137 133.036 374.637 134.879 376.481C136.723 378.324 139.223 379.36 141.83 379.36H254.18C256.787 379.36 259.287 378.324 261.131 376.481C262.974 374.637 264.01 372.137 264.01 369.53V363.36" stroke="#263238" stroke-width="2" stroke-linecap="round" stroke-linejoin="round"/>
<path d="M135.55 304.78H127.18V310.95H135.55V304.78Z" fill="#263238" stroke="#263238" stroke-linecap="round" stroke-linejoin="round"/>
<path d="M128.23 275.2H87.05V387.04H128.23V275.2Z" fill="white"/>
<mask id="mask0_3_143" style="mask-type:luminance" maskUnits="userSpaceOnUse" x="87" y="275" width="42" height="113">
<path d="M128.23 275.2H87.05V387.04H128.23V275.2Z" fill="white"/>
</mask>
<g mask="url(#mask0_3_143)">
<path d="M87.05 387.04H105.42V290L105.31 275.2H87.05V387.04Z" fill="#00FF4C"/>
<path opacity="0.5" d="M87.05 387.04H105.42V290L105.31 275.2H87.05V387.04Z" fill="white"/>
<path d="M113.44 328.25H110.55L112.68 322.46H105.73L102.75 330.57H104.84L101.21 340.41L113.44 328.25Z" fill="#263238"/>
</g>
<path d="M128.23 275.2H87.05V387.04H128.23V275.2Z" stroke="#263238" stroke-miterlimit="10"/>
<path d="M107.64 308.26C119.012 308.26 128.23 294.17 128.23 276.79C128.23 259.41 119.012 245.32 107.64 245.32C96.2684 245.32 87.05 259.41 87.05 276.79C87.05 294.17 96.2684 308.26 107.64 308.26Z" fill="white" stroke="#263238" stroke-linecap="round" stroke-linejoin="round"/>
<path d="M112.45 266.91H102.82C101.953 266.91 101.25 267.613 101.25 268.48V275.47C101.25 276.337 101.953 277.04 102.82 277.04H112.45C113.317 277.04 114.02 276.337 114.02 275.47V268.48C114.02 267.613 113.317 266.91 112.45 266.91Z" fill="#00FF4C" stroke="#263238" stroke-linecap="round" stroke-linejoin="round"/>
<path d="M114.68 295.54C114.68 294.156 114.269 292.802 113.5 291.651C112.731 290.5 111.638 289.603 110.359 289.073C109.08 288.543 107.672 288.404 106.314 288.675C104.956 288.945 103.709 289.611 102.73 290.59C101.751 291.569 101.085 292.817 100.814 294.174C100.544 295.532 100.683 296.94 101.213 298.219C101.743 299.498 102.64 300.591 103.791 301.36C104.942 302.129 106.296 302.54 107.68 302.54C108.599 302.54 109.51 302.359 110.359 302.007C111.208 301.655 111.98 301.14 112.63 300.49C113.28 299.84 113.795 299.068 114.147 298.219C114.499 297.37 114.68 296.459 114.68 295.54Z" fill="#263238" stroke="#263238" stroke-linecap="round" stroke-linejoin="round"/>
<path opacity="0.2" d="M111.16 295.54C111.16 294.844 110.954 294.163 110.567 293.584C110.18 293.006 109.63 292.554 108.987 292.288C108.344 292.021 107.636 291.952 106.953 292.088C106.27 292.223 105.643 292.559 105.151 293.051C104.659 293.543 104.323 294.17 104.188 294.853C104.052 295.536 104.122 296.244 104.388 296.887C104.654 297.53 105.106 298.08 105.684 298.467C106.263 298.854 106.944 299.06 107.64 299.06C108.573 299.057 109.467 298.686 110.126 298.026C110.786 297.367 111.157 296.473 111.16 295.54Z" fill="white"/>
<path d="M109.84 255.46C109.84 255.025 109.711 254.6 109.469 254.238C109.227 253.876 108.884 253.594 108.482 253.427C108.08 253.261 107.638 253.217 107.211 253.302C106.784 253.387 106.392 253.597 106.084 253.904C105.777 254.212 105.567 254.604 105.482 255.031C105.397 255.458 105.441 255.9 105.607 256.302C105.774 256.704 106.056 257.048 106.418 257.289C106.779 257.531 107.205 257.66 107.64 257.66C108.223 257.657 108.781 257.425 109.193 257.013C109.605 256.601 109.837 256.043 109.84 255.46Z" fill="#263238" stroke="#263238" stroke-linecap="round" stroke-linejoin="round"/>
<path d="M133.89 310.38H130.24V316.55H133.89V310.38Z" fill="#263238" stroke="#263238" stroke-linecap="round" stroke-linejoin="round"/>
<path d="M128.23 366.44H87.05V387.04H128.23V366.44Z" fill="#00FF4C" stroke="#263238" stroke-linecap="round" stroke-linejoin="round"/>
<path d="M446.45 380.09H60.72V387.58H446.45V380.09Z" fill="white" stroke="#263238" stroke-linecap="round" stroke-linejoin="round"/>
<path d="M446.45 385.81H60.72V389.33H446.45V385.81Z" fill="#263238" stroke="#263238" stroke-linecap="round" stroke-linejoin="round"/>
<path d="M203.39 301.93H202.85C202.313 301.93 201.783 301.803 201.304 301.558C200.826 301.314 200.412 300.959 200.097 300.524C199.782 300.089 199.574 299.585 199.491 299.054C199.408 298.524 199.452 297.981 199.62 297.47C200.3 295.37 201.45 293.25 203.39 292.93C207.39 292.26 218.39 295.6 218.39 297.93C218.39 300.26 218.39 301.26 217.05 301.26H208.72L202.05 308.6L201.91 308.48C201.565 308.192 201.288 307.832 201.098 307.425C200.908 307.018 200.809 306.574 200.809 306.125C200.809 305.676 200.908 305.232 201.098 304.825C201.288 304.418 201.565 304.058 201.91 303.77C202.505 303.246 203.005 302.623 203.39 301.93Z" fill="#263238" stroke="#263238" stroke-linecap="round" stroke-linejoin="round"/>
<path d="M278.72 363.93H389.39C389.39 363.93 405.39 353.26 402.05 325.26C398.71 297.26 380.72 315.93 374.05 334.6H324.72C324.72 334.6 314.05 313.26 296.72 315.93C279.39 318.6 278.72 363.93 278.72 363.93Z" fill="#263238" stroke="#263238" stroke-linecap="round" stroke-linejoin="round"/>
<path d="M305.91 358.39C305.91 350.16 303.56 342.76 299.79 337.53V329.73H286.45C275.69 329.73 266.98 342.56 266.98 358.39C266.98 374.22 275.69 387 286.45 387H299.79V379.2C303.56 374 305.91 366.61 305.91 358.39Z" fill="#263238" stroke="#263238" stroke-linecap="round" stroke-linejoin="round"/>
<path d="M299.79 387.04C310.543 387.04 319.26 374.213 319.26 358.39C319.26 342.567 310.543 329.74 299.79 329.74C289.037 329.74 280.32 342.567 280.32 358.39C280.32 374.213 289.037 387.04 299.79 387.04Z" fill="#263238"/>
<mask id="mask1_3_143" style="mask-type:luminance" maskUnits="userSpaceOnUse" x="280" y="329" width="40" height="59">
<path d="M299.79 387.04C310.543 387.04 319.26 374.213 319.26 358.39C319.26 342.567 310.543 329.74 299.79 329.74C289.037 329.74 280.32 342.567 280.32 358.39C280.32 374.213 289.037 387.04 299.79 387.04Z" fill="white"/>
</mask>
<g mask="url(#mask1_3_143)">
<path opacity="0.2" d="M299.79 387.04C310.543 387.04 319.26 374.213 319.26 358.39C319.26 342.567 310.543 329.74 299.79 329.74C289.037 329.74 280.32 342.567 280.32 358.39C280.32 374.213 289.037 387.04 299.79 387.04Z" fill="white"/>
</g>
<path d="M299.79 387.04C310.543 387.04 319.26 374.213 319.26 358.39C319.26 342.567 310.543 329.74 299.79 329.74C289.037 329.74 280.32 342.567 280.32 358.39C280.32 374.213 289.037 387.04 299.79 387.04Z" stroke="#263238" stroke-linecap="round" stroke-linejoin="round"/>
<path d="M185.65 329.73H173C162.84 329.73 154.6 342.56 154.6 358.39C154.6 374.22 162.88 387 173 387H185.61C195.77 387 204.01 374.17 204.01 358.35C204.01 342.53 195.81 329.73 185.65 329.73Z" fill="#263238" stroke="#263238" stroke-linecap="round" stroke-linejoin="round"/>
<path d="M299.79 381.25C308.367 381.25 315.32 371.015 315.32 358.39C315.32 345.765 308.367 335.53 299.79 335.53C291.213 335.53 284.26 345.765 284.26 358.39C284.26 371.015 291.213 381.25 299.79 381.25Z" fill="white" stroke="#263238" stroke-linecap="round" stroke-linejoin="round"/>
<path d="M397.08 358.39C397.08 350.16 395.58 342.76 393.18 337.53V329.73H381.4C374.56 329.73 369.01 342.56 369.01 358.39C369.01 374.22 374.56 387 381.4 387H393.18V379.2C395.58 374 397.08 366.61 397.08 358.39Z" fill="#263238" stroke="#263238" stroke-linecap="round" stroke-linejoin="round"/>
<path d="M393.18 387.04C400.023 387.04 405.57 374.213 405.57 358.39C405.57 342.567 400.023 329.74 393.18 329.74C386.337 329.74 380.79 342.567 380.79 358.39C380.79 374.213 386.337 387.04 393.18 387.04Z" fill="#263238"/>
<mask id="mask2_3_143" style="mask-type:luminance" maskUnits="userSpaceOnUse" x="380" y="329" width="26" height="59">
<path d="M393.18 387.04C400.023 387.04 405.57 374.213 405.57 358.39C405.57 342.567 400.023 329.74 393.18 329.74C386.337 329.74 380.79 342.567 380.79 358.39C380.79 374.213 386.337 387.04 393.18 387.04Z" fill="white"/>
</mask>
<g mask="url(#mask2_3_143)">
<path opacity="0.2" d="M393.18 387.04C400.023 387.04 405.57 374.213 405.57 358.39C405.57 342.567 400.023 329.74 393.18 329.74C386.337 329.74 380.79 342.567 380.79 358.39C380.79 374.213 386.337 387.04 393.18 387.04Z" fill="white"/>
</g>
<path d="M393.18 387.04C400.023 387.04 405.57 374.213 405.57 358.39C405.57 342.567 400.023 329.74 393.18 329.74C386.337 329.74 380.79 342.567 380.79 358.39C380.79 374.213 386.337 387.04 393.18 387.04Z" stroke="#263238" stroke-linecap="round" stroke-linejoin="round"/>
<path d="M393.18 381.25C398.637 381.25 403.06 371.015 403.06 358.39C403.06 345.765 398.637 335.53 393.18 335.53C387.723 335.53 383.3 345.765 383.3 358.39C383.3 371.015 387.723 381.25 393.18 381.25Z" fill="white" stroke="#263238" stroke-linecap="round" stroke-linejoin="round"/>
<path d="M283.38 365.38C283.38 342.55 291.32 324.04 301.1 324.04C310.88 324.04 318.82 342.55 318.82 365.38C318.82 366.64 318.82 367.88 318.74 369.1H381.87C381.83 367.88 381.81 366.64 381.81 365.38C381.81 342.55 387.59 324.04 394.72 324.04C399.48 324.04 403.64 332.31 405.87 344.61V310.89C405.87 309.353 405.332 307.864 404.349 306.683C403.367 305.501 402.001 304.7 400.49 304.42L400.19 304.36C395.81 303.48 387.94 295.17 375.69 284.67C363.44 274.17 352.5 273.3 352.5 273.3H242C239.908 273.308 237.878 274.012 236.23 275.3L198.54 304.39C198.54 304.39 164.85 310.95 157.41 318.39C149.97 325.83 150.85 369.13 150.85 369.13H283.46C283.41 367.88 283.38 366.64 283.38 365.38Z" fill="#26ADE2"/>
<mask id="mask3_3_143" style="mask-type:luminance" maskUnits="userSpaceOnUse" x="150" y="273" width="256" height="97">
<path d="M283.38 365.38C283.38 342.55 291.32 324.04 301.1 324.04C310.88 324.04 318.82 342.55 318.82 365.38C318.82 366.64 318.82 367.88 318.74 369.1H381.87C381.83 367.88 381.81 366.64 381.81 365.38C381.81 342.55 387.59 324.04 394.72 324.04C399.48 324.04 403.64 332.31 405.87 344.61V310.89C405.87 309.353 405.332 307.864 404.349 306.683C403.367 305.501 402.001 304.7 400.49 304.42L400.19 304.36C395.81 303.48 387.94 295.17 375.69 284.67C363.44 274.17 352.5 273.3 352.5 273.3H242C239.908 273.308 237.878 274.012 236.23 275.3L198.54 304.39C198.54 304.39 164.85 310.95 157.41 318.39C149.97 325.83 150.85 369.13 150.85 369.13H283.46C283.41 367.88 283.38 366.64 283.38 365.38Z" fill="white"/>
</mask>
<g mask="url(#mask3_3_143)">
<path opacity="0.3" d="M305.26 304.36L311.11 273.3H242C239.908 273.308 237.878 274.012 236.23 275.3L198.54 304.39C198.54 304.39 164.85 310.95 157.41 318.39C149.97 325.83 150.85 369.13 150.85 369.13H269.17C270.03 345.75 275.39 334.63 275.39 334.63H242.72C268.05 307.26 305.26 304.36 305.26 304.36Z" fill="black"/>
</g>
<path d="M283.38 365.38C283.38 342.55 291.32 324.04 301.1 324.04C310.88 324.04 318.82 342.55 318.82 365.38C318.82 366.64 318.82 367.88 318.74 369.1H381.87C381.83 367.88 381.81 366.64 381.81 365.38C381.81 342.55 387.59 324.04 394.72 324.04C399.48 324.04 403.64 332.31 405.87 344.61V310.89C405.87 309.353 405.332 307.864 404.349 306.683C403.367 305.501 402.001 304.7 400.49 304.42L400.19 304.36C395.81 303.48 387.94 295.17 375.69 284.67C363.44 274.17 352.5 273.3 352.5 273.3H242C239.908 273.308 237.878 274.012 236.23 275.3L198.54 304.39C198.54 304.39 164.85 310.95 157.41 318.39C149.97 325.83 150.85 369.13 150.85 369.13H283.46C283.41 367.88 283.38 366.64 283.38 365.38Z" stroke="#263238" stroke-linecap="round" stroke-linejoin="round"/>
<path d="M325.38 273.3H242C239.908 273.308 237.878 274.012 236.23 275.3L198.54 304.39H305.26L325.38 273.3Z" fill="#26ADE2" stroke="#263238" stroke-linecap="round" stroke-linejoin="round"/>
<path d="M281.7 316.06C275.7 316.14 265.19 316.54 260.64 318.36C256.87 319.84 253.213 321.595 249.7 323.61H271.13L281.7 316.06Z" fill="#263238" stroke="#263238" stroke-linecap="round" stroke-linejoin="round"/>
<path d="M272.45 330.17V326.23H249.7L253.82 330.03C253.755 330.069 253.694 330.116 253.64 330.17H272.45Z" fill="#263238" stroke="#263238" stroke-linecap="round" stroke-linejoin="round"/>
<path d="M274.63 324.48V330.2C275.515 330.123 276.371 329.843 277.131 329.382C277.891 328.921 278.534 328.29 279.01 327.54C281.2 324.04 286.12 316.06 286.12 316.06L274.63 324.48Z" fill="#263238" stroke="#263238" stroke-linecap="round" stroke-linejoin="round"/>
<path d="M159.51 330L163.63 326.2H153.92C153.62 327.43 153.34 328.75 153.1 330.14H159.69C159.634 330.089 159.574 330.042 159.51 330Z" fill="#263238" stroke="#263238" stroke-linecap="round" stroke-linejoin="round"/>
<path d="M156.26 319.87C155.59 321.053 155.053 322.308 154.66 323.61H163.66C161.263 322.229 158.793 320.981 156.26 319.87Z" fill="#263238" stroke="#263238" stroke-linecap="round" stroke-linejoin="round"/>
<path d="M305.26 304.36H370C370 304.36 379.19 301.3 376.56 289.92C375.67 286.06 357.31 277.24 354.69 277.24H323.19L305.26 304.36Z" fill="#263238"/>
<mask id="mask4_3_143" style="mask-type:luminance" maskUnits="userSpaceOnUse" x="305" y="277" width="73" height="28">
<path d="M305.26 304.36H370C370 304.36 379.19 301.3 376.56 289.92C375.67 286.06 357.31 277.24 354.69 277.24H323.19L305.26 304.36Z" fill="white"/>
</mask>
<g mask="url(#mask4_3_143)">
<path opacity="0.2" d="M305.26 304.36H370C370 304.36 379.19 301.3 376.56 289.92C375.67 286.06 357.31 277.24 354.69 277.24H323.19L305.26 304.36Z" fill="white" stroke="#263238" stroke-linecap="round" stroke-linejoin="round"/>
</g>
<path d="M305.26 304.36H370C370 304.36 379.19 301.3 376.56 289.92C375.67 286.06 357.31 277.24 354.69 277.24H323.19L305.26 304.36Z" stroke="#263238" stroke-linecap="round" stroke-linejoin="round"/>
<path d="M233.66 277.24L198.51 304.36H305.26L322.83 277.24H233.66Z" fill="#263238" stroke="#263238" stroke-linecap="round" stroke-linejoin="round"/>
<path d="M165.27 324.48V333.67L171.83 338.48H224.76L237.01 333.23V324.48H165.27Z" fill="#263238" stroke="#263238" stroke-linecap="round" stroke-linejoin="round"/>
<path opacity="0.3" d="M167.72 324.48H165.27V326.93H167.72V324.48Z" fill="white"/>
<path opacity="0.3" d="M170.42 327.19H167.97V329.64H170.42V327.19Z" fill="white"/>
<path opacity="0.3" d="M173.13 329.89H170.68V332.34H173.13V329.89Z" fill="white"/>
<path opacity="0.3" d="M175.83 332.6H173.38V335.05H175.83V332.6Z" fill="white"/>
<path opacity="0.3" d="M236.53 324.48H234.08V326.93H236.53V324.48Z" fill="white"/>
<path opacity="0.3" d="M233.82 327.19H231.37V329.64H233.82V327.19Z" fill="white"/>
<path opacity="0.3" d="M231.12 329.89H228.67V332.34H231.12V329.89Z" fill="white"/>
<path opacity="0.3" d="M228.42 332.6H225.97V335.05H228.42V332.6Z" fill="white"/>
<path opacity="0.3" d="M179.59 332.6H177.14V335.05H179.59V332.6Z" fill="white"/>
<path opacity="0.3" d="M183.34 332.6H180.89V335.05H183.34V332.6Z" fill="white"/>
<path opacity="0.3" d="M187.1 332.6H184.65V335.05H187.1V332.6Z" fill="white"/>
<path opacity="0.3" d="M190.86 332.6H188.41V335.05H190.86V332.6Z" fill="white"/>
<path opacity="0.3" d="M194.61 332.6H192.16V335.05H194.61V332.6Z" fill="white"/>
<path opacity="0.3" d="M198.37 332.6H195.92V335.05H198.37V332.6Z" fill="white"/>
<path opacity="0.3" d="M202.12 332.6H199.67V335.05H202.12V332.6Z" fill="white"/>
<path opacity="0.3" d="M205.88 332.6H203.43V335.05H205.88V332.6Z" fill="white"/>
<path opacity="0.3" d="M209.64 332.6H207.19V335.05H209.64V332.6Z" fill="white"/>
<path opacity="0.3" d="M213.39 332.6H210.94V335.05H213.39V332.6Z" fill="white"/>
<path opacity="0.3" d="M217.15 332.6H214.7V335.05H217.15V332.6Z" fill="white"/>
<path opacity="0.3" d="M220.9 332.6H218.45V335.05H220.9V332.6Z" fill="white"/>
<path opacity="0.3" d="M224.66 332.6H222.21V335.05H224.66V332.6Z" fill="white"/>
<path d="M262.38 349.85H153.46L152 338.18C151.33 344.6 151 351.43 150.89 357.05L151.27 358.6L153.46 354.23H162.8L157 359H243.61L240.52 354.19H262.42L268.55 357.69H272.92V335.42L262.38 349.85Z" fill="#263238" stroke="#263238" stroke-linecap="round" stroke-linejoin="round"/>
<path d="M328.05 301.93H327.51C326.974 301.928 326.445 301.8 325.968 301.555C325.49 301.31 325.078 300.955 324.764 300.52C324.45 300.085 324.243 299.582 324.161 299.052C324.078 298.522 324.123 297.98 324.29 297.47C324.96 295.37 326.12 293.25 328.05 292.93C332.05 292.26 343.05 295.6 343.05 297.93C343.05 300.26 343.05 301.26 341.72 301.26H333.39L326.72 308.6L326.58 308.48C326.235 308.192 325.958 307.832 325.768 307.425C325.578 307.018 325.479 306.574 325.479 306.125C325.479 305.676 325.578 305.232 325.768 304.825C325.958 304.418 326.235 304.058 326.58 303.77C327.172 303.245 327.669 302.623 328.05 301.93Z" fill="#26ADE2"/>
<path d="M347.93 304.36H351.59C351.2 298.99 349.67 287.17 343.66 277.24H340C342.11 281.81 347.11 293.6 347.93 304.36Z" fill="#263238" stroke="#263238" stroke-linecap="round" stroke-linejoin="round"/>
<path d="M269.05 284.6L270.39 288.26C268.743 289.829 267.783 291.986 267.72 294.26V304.36H259.51L266.39 284.6H269.05ZM230.72 289.6C225.09 293.03 216.59 300.6 212.46 304.36H239.87L254.05 282.6L244.72 283.26C239.796 284.752 235.09 286.884 230.72 289.6ZM287.39 286.93L284.05 286.26H279.39L278.05 287.6C278.05 287.6 281.39 287.93 281.72 289.93C281.947 291.922 282.057 293.925 282.05 295.93H284.39C284.39 295.93 284.39 292.26 286.05 290.6C286.992 289.647 287.994 288.756 289.05 287.93L287.39 286.93Z" fill="white" stroke="#263238" stroke-linecap="round" stroke-linejoin="round"/>
<path d="M326.58 308.48L326.72 308.6L333.39 301.26H341.72C342.82 301.26 343.01 300.57 343.04 299.01H324.16C324.273 299.819 324.674 300.559 325.29 301.095C325.905 301.632 326.694 301.928 327.51 301.93H328.05C327.666 302.624 327.165 303.246 326.57 303.77C326.226 304.059 325.95 304.42 325.76 304.827C325.571 305.234 325.474 305.678 325.475 306.127C325.475 306.576 325.575 307.02 325.766 307.426C325.957 307.833 326.235 308.193 326.58 308.48Z" fill="#263238" stroke="#263238" stroke-linecap="round" stroke-linejoin="round"/>
<path d="M347.15 312.41H339.65V314.02H347.15V312.41Z" fill="#263238"/>
<path d="M380.92 312.41H373.42V314.02H380.92V312.41Z" fill="#263238"/>
<path d="M381.45 306C381.45 306 386.88 309.69 390.03 322.62C390.03 322.62 376.63 324.22 376.63 361.21" stroke="#263238" stroke-linecap="round" stroke-linejoin="round"/>
<path d="M375 362.79H318.78C318.78 363.65 318.78 364.51 318.78 365.38C318.78 366.64 318.78 367.88 318.7 369.1H381.83C381.79 367.88 381.77 366.64 381.77 365.38V365.13L375 362.79Z" fill="#263238" stroke="#263238" stroke-linecap="round" stroke-linejoin="round"/>
<path d="M283.38 365.38C283.38 364.51 283.38 363.65 283.38 362.79H150.81C150.81 366.64 150.81 369.1 150.81 369.1H283.46C283.41 367.88 283.38 366.64 283.38 365.38Z" fill="#263238" stroke="#263238" stroke-linecap="round" stroke-linejoin="round"/>
<path d="M403.52 309.2C402.854 309.2 402.199 309.373 401.62 309.703C401.041 310.033 400.558 310.508 400.218 311.081C399.878 311.654 399.693 312.305 399.681 312.971C399.669 313.637 399.831 314.295 400.15 314.88L405.87 325.38V310.89C405.862 310.319 405.782 309.751 405.63 309.2H403.52Z" fill="#263238" stroke="#263238" stroke-linecap="round" stroke-linejoin="round"/>
<path d="M352.05 309.93C352.05 309.93 364.05 327.26 352.05 356.6" stroke="#263238" stroke-linecap="round" stroke-linejoin="round"/>
</svg>
